<svg width="16" height="15" viewBox="0 0 16 15" fill="none" xmlns="http://www.w3.org/2000/svg">
<path d="M5.33301 10.1667V12.0333C5.33301 12.7801 5.33301 13.1534 5.47833 13.4387C5.60616 13.6895 5.81014 13.8935 6.06102 14.0214C6.34624 14.1667 6.7196 14.1667 7.46634 14.1667H12.533C13.2797 14.1667 13.6531 14.1667 13.9383 14.0214C14.1892 13.8935 14.3932 13.6895 14.521 13.4387C14.6663 13.1534 14.6663 12.7801 14.6663 12.0333V6.96668C14.6663 6.21994 14.6663 5.84657 14.521 5.56136C14.3932 5.31047 14.1892 5.1065 13.9383 4.97867C13.6531 4.83334 13.2797 4.83334 12.533 4.83334H10.6663M3.46634 10.1667H8.53301C9.27974 10.1667 9.65311 10.1667 9.93833 10.0214C10.1892 9.89352 10.3932 9.68955 10.521 9.43866C10.6663 9.15345 10.6663 8.78008 10.6663 8.03334V2.96668C10.6663 2.21994 10.6663 1.84657 10.521 1.56136C10.3932 1.31047 10.1892 1.1065 9.93833 0.978668C9.65311 0.833344 9.27974 0.833344 8.53301 0.833344H3.46634C2.7196 0.833344 2.34624 0.833344 2.06102 0.978668C1.81014 1.1065 1.60616 1.31047 1.47833 1.56136C1.33301 1.84657 1.33301 2.21994 1.33301 2.96668V8.03334C1.33301 8.78008 1.33301 9.15345 1.47833 9.43866C1.60616 9.68955 1.81014 9.89352 2.06102 10.0214C2.34624 10.1667 2.7196 10.1667 3.46634 10.1667Z" stroke="#18DDF7" stroke-linecap="round" stroke-linejoin="round"/>
</svg>
