<svg width="16" height="16" viewBox="0 0 16 16" fill="none" xmlns="http://www.w3.org/2000/svg">
<path d="M8 8.66665C8.36819 8.66665 8.66667 8.36817 8.66667 7.99998C8.66667 7.63179 8.36819 7.33331 8 7.33331C7.63181 7.33331 7.33334 7.63179 7.33334 7.99998C7.33334 8.36817 7.63181 8.66665 8 8.66665Z" stroke="#18DDF7" stroke-width="1.5" stroke-linecap="round" stroke-linejoin="round"/>
<path d="M12.6667 8.66665C13.0349 8.66665 13.3333 8.36817 13.3333 7.99998C13.3333 7.63179 13.0349 7.33331 12.6667 7.33331C12.2985 7.33331 12 7.63179 12 7.99998C12 8.36817 12.2985 8.66665 12.6667 8.66665Z" stroke="#18DDF7" stroke-width="1.5" stroke-linecap="round" stroke-linejoin="round"/>
<path d="M3.33334 8.66665C3.70153 8.66665 4.00001 8.36817 4.00001 7.99998C4.00001 7.63179 3.70153 7.33331 3.33334 7.33331C2.96515 7.33331 2.66667 7.63179 2.66667 7.99998C2.66667 8.36817 2.96515 8.66665 3.33334 8.66665Z" stroke="#18DDF7" stroke-width="1.5" stroke-linecap="round" stroke-linejoin="round"/>
</svg>
