<svg width="430" height="321" viewBox="0 0 430 321" fill="none" xmlns="http://www.w3.org/2000/svg">
<g opacity="0.04" clip-path="url(#clip0_1791_10173)">
<mask id="mask0_1791_10173" style="mask-type:luminance" maskUnits="userSpaceOnUse" x="-70" y="22" width="610" height="639">
<path d="M311.131 136.9C321.851 107.131 329.112 80.1525 321.77 60.7665C301.7 7.55449 243.453 25.9092 243.453 25.9092C287.831 31.0502 301.185 75.2475 279.902 95.6652C258.675 116.035 234.345 91.1082 241.84 79.1178C249.335 67.1275 261.192 75.0254 261.192 75.0254C233.812 49.4595 200.755 51.0927 178.267 88.509C155.779 125.925 102.253 68.5864 55.2986 87.1054C8.29697 105.569 10.6983 155.461 10.6983 155.461C33.613 124.839 73.9811 117.19 94.7475 144.229C115.463 171.263 84.0861 223.458 53.1467 201.346C22.2073 179.233 47.049 153.968 47.049 153.968C17.0696 164.244 3.8426 204.875 28.2541 229.395C52.6655 253.915 15.2391 296.473 -7.51211 291.383C-30.2633 286.293 -25.9247 260.44 -25.9247 260.44C-52.4265 285.118 -48.949 315.576 -22.4503 334.21C4.04473 352.896 -24.6499 410.71 -43.9235 401.179C-63.1972 391.649 -63.8906 380.085 -63.8906 380.085C-84.1818 422 -47.7837 455.461 -16.6802 447.436C14.372 439.408 35.9409 466.764 27.8554 503.491C19.7661 540.268 -7.15922 533.682 -7.15922 533.682C19.2847 555.152 46.8558 554.404 55.8538 515.112C64.8518 475.82 140.63 491.957 116.185 528.609C91.7403 565.261 106.757 598.843 106.757 598.843C107.189 568.572 126.807 556.704 158.309 546.076C147.589 575.845 140.328 602.824 147.67 622.21C167.74 675.422 225.987 657.067 225.987 657.067C181.609 651.926 168.255 607.729 189.538 587.311C210.765 566.941 235.095 591.868 227.596 603.91C220.101 615.9 208.244 608.002 208.244 608.002C235.624 633.568 268.681 631.935 291.169 594.519C313.657 557.102 367.184 614.441 414.138 595.922C461.088 577.455 458.687 527.563 458.687 527.563C435.772 558.185 395.408 565.782 374.638 538.795C353.922 511.76 385.299 459.566 416.238 481.678C447.178 503.79 422.336 529.055 422.336 529.055C452.315 518.78 465.542 478.149 441.131 453.629C416.72 429.108 454.146 386.55 476.897 391.641C499.648 396.731 495.31 422.583 495.31 422.583C521.812 397.905 518.334 367.448 491.835 348.813C465.34 330.127 494.035 272.314 513.309 281.844C532.582 291.375 533.276 302.939 533.276 302.939C553.567 261.023 517.169 227.563 486.065 235.587C455.013 243.615 433.444 216.259 441.53 179.533C449.619 142.755 476.544 149.341 476.544 149.341C450.1 127.872 422.529 128.62 413.531 167.912C404.533 207.203 328.755 191.067 353.2 154.415C377.645 117.763 362.628 84.1803 362.628 84.1803C362.196 114.452 342.578 126.32 311.076 136.947" fill="white"/>
</mask>
<g mask="url(#mask0_1791_10173)">
<path d="M570.839 27.5136L-51.5977 -18.5261L-101.458 655.562L520.978 701.601L570.839 27.5136Z" fill="url(#paint0_linear_1791_10173)"/>
</g>
</g>
<defs>
<linearGradient id="paint0_linear_1791_10173" x1="218.946" y1="769.707" x2="250.472" y2="-88.5388" gradientUnits="userSpaceOnUse">
<stop stop-color="#0000FF"/>
<stop offset="1" stop-color="#00FFFF"/>
</linearGradient>
<clipPath id="clip0_1791_10173">
<rect width="430" height="426" fill="white"/>
</clipPath>
</defs>
</svg>
