<svg width="25" height="25" viewBox="0 0 25 25" fill="none" xmlns="http://www.w3.org/2000/svg">
<path d="M4.77209 21.2279L11.3686 14.6314C11.7646 14.2354 11.9627 14.0373 12.191 13.9632C12.3918 13.8979 12.6082 13.8979 12.809 13.9632C13.0373 14.0373 13.2354 14.2354 13.6314 14.6314L20.1839 21.1839M14.5 15.5L17.3686 12.6314C17.7646 12.2354 17.9627 12.0373 18.191 11.9632C18.3918 11.8979 18.6082 11.8979 18.809 11.9632C19.0373 12.0373 19.2354 12.2354 19.6314 12.6314L22.5 15.5M10.5 9.5C10.5 10.6046 9.60457 11.5 8.5 11.5C7.39543 11.5 6.5 10.6046 6.5 9.5C6.5 8.39543 7.39543 7.5 8.5 7.5C9.60457 7.5 10.5 8.39543 10.5 9.5ZM7.3 21.5H17.7C19.3802 21.5 20.2202 21.5 20.862 21.173C21.4265 20.8854 21.8854 20.4265 22.173 19.862C22.5 19.2202 22.5 18.3802 22.5 16.7V8.3C22.5 6.61984 22.5 5.77976 22.173 5.13803C21.8854 4.57354 21.4265 4.1146 20.862 3.82698C20.2202 3.5 19.3802 3.5 17.7 3.5H7.3C5.61984 3.5 4.77976 3.5 4.13803 3.82698C3.57354 4.1146 3.1146 4.57354 2.82698 5.13803C2.5 5.77976 2.5 6.61984 2.5 8.3V16.7C2.5 18.3802 2.5 19.2202 2.82698 19.862C3.1146 20.4265 3.57354 20.8854 4.13803 21.173C4.77976 21.5 5.61984 21.5 7.3 21.5Z" stroke="#18DDF7" stroke-width="1.5" stroke-linecap="round" stroke-linejoin="round"/>
</svg>
