<svg width="20" height="20" viewBox="0 0 20 20" fill="none" xmlns="http://www.w3.org/2000/svg">
<mask id="mask0_1807_3386" style="mask-type:luminance" maskUnits="userSpaceOnUse" x="2" y="0" width="16" height="16">
<path fill-rule="evenodd" clip-rule="evenodd" d="M2.50008 0.833313H17.9142V15.29H2.50008V0.833313Z" fill="white"/>
</mask>
<g mask="url(#mask0_1807_3386)">
<path fill-rule="evenodd" clip-rule="evenodd" d="M10.2059 2.08331C7.29342 2.08331 5.26342 4.36498 5.26342 6.41248C5.26342 8.14498 4.78259 8.94581 4.35759 9.65248C4.01675 10.22 3.74759 10.6683 3.74759 11.6425C3.88675 13.2141 4.92425 14.04 10.2059 14.04C15.4584 14.04 16.5284 13.1775 16.6668 11.5883C16.6643 10.6683 16.3951 10.22 16.0543 9.65248C15.6293 8.94581 15.1484 8.14498 15.1484 6.41248C15.1484 4.36498 13.1184 2.08331 10.2059 2.08331ZM10.2059 15.29C6.30925 15.29 2.78759 15.015 2.50009 11.6958C2.49759 10.3225 2.91675 9.62415 3.28675 9.00915C3.66092 8.38581 4.01342 7.79831 4.01342 6.41248C4.01342 3.71831 6.50175 0.833313 10.2059 0.833313C13.9101 0.833313 16.3984 3.71831 16.3984 6.41248C16.3984 7.79831 16.7509 8.38581 17.1251 9.00915C17.4951 9.62415 17.9143 10.3225 17.9143 11.6425C17.6234 15.015 14.1026 15.29 10.2059 15.29Z" fill="white"/>
</g>
<path fill-rule="evenodd" clip-rule="evenodd" d="M10.1653 18.75H10.1636C9.22942 18.7492 8.34526 18.3375 7.67442 17.59C7.44359 17.3342 7.46442 16.9383 7.72109 16.7083C7.97776 16.4767 8.37276 16.4975 8.60359 16.755C9.03526 17.2358 9.58942 17.5 10.1644 17.5H10.1653C10.7428 17.5 11.2994 17.2358 11.7319 16.7542C11.9636 16.4983 12.3586 16.4775 12.6144 16.7083C12.8711 16.9392 12.8919 17.335 12.6611 17.5908C11.9878 18.3383 11.1019 18.75 10.1653 18.75Z" fill="white"/>
</svg>
