<svg width="24" height="25" viewBox="0 0 24 25" fill="none" xmlns="http://www.w3.org/2000/svg">
<path d="M21 21.5H13M2.49997 22L8.04924 19.8657C8.40418 19.7291 8.58165 19.6609 8.74769 19.5718C8.89517 19.4926 9.03577 19.4012 9.16801 19.2986C9.31689 19.1831 9.45135 19.0486 9.72025 18.7797L21 7.5C22.1046 6.39543 22.1046 4.60457 21 3.5C19.8954 2.39543 18.1046 2.39543 17 3.49999L5.72026 14.7797C5.45135 15.0486 5.3169 15.1831 5.20137 15.332C5.09875 15.4642 5.00737 15.6048 4.92821 15.7523C4.83908 15.9183 4.77082 16.0958 4.63431 16.4507L2.49997 22ZM2.49997 22L4.55809 16.649C4.70537 16.266 4.77901 16.0746 4.90531 15.9869C5.01569 15.9102 5.15228 15.8813 5.28427 15.9065C5.43531 15.9353 5.58036 16.0804 5.87046 16.3705L8.12955 18.6295C8.41965 18.9196 8.5647 19.0647 8.59354 19.2157C8.61874 19.3477 8.58976 19.4843 8.51312 19.5947C8.42542 19.721 8.23396 19.7946 7.85104 19.9419L2.49997 22Z" stroke="#18DDF7" stroke-width="1.5" stroke-linecap="round" stroke-linejoin="round"/>
</svg>
