<svg width="25" height="24" viewBox="0 0 25 24" fill="none" xmlns="http://www.w3.org/2000/svg">
<path d="M5.25 4.98963C5.25 4.01847 5.25 3.53289 5.45249 3.26522C5.62889 3.03203 5.89852 2.88773 6.1904 2.8703C6.52544 2.8503 6.92946 3.11965 7.73752 3.65835L18.2531 10.6687C18.9208 11.1139 19.2546 11.3364 19.3709 11.6169C19.4727 11.8622 19.4727 12.1378 19.3709 12.3831C19.2546 12.6636 18.9208 12.8862 18.2531 13.3313L7.73752 20.3417C6.92946 20.8804 6.52544 21.1497 6.1904 21.1297C5.89852 21.1123 5.62889 20.968 5.45249 20.7348C5.25 20.4671 5.25 19.9815 5.25 19.0104V4.98963Z" stroke="white" stroke-opacity="0.5" stroke-width="1.5" stroke-linecap="round" stroke-linejoin="round"/>
</svg>
