<svg width="16" height="20" viewBox="0 0 16 20" fill="none" xmlns="http://www.w3.org/2000/svg">
<path d="M1 2.98963C1 2.01847 1 1.53289 1.20249 1.26522C1.37889 1.03203 1.64852 0.887728 1.9404 0.870301C2.27544 0.850296 2.67946 1.11965 3.48752 1.65835L14.0031 8.66873C14.6708 9.11385 15.0046 9.33641 15.1209 9.61694C15.2227 9.86219 15.2227 10.1378 15.1209 10.3831C15.0046 10.6636 14.6708 10.8862 14.0031 11.3313L3.48752 18.3417C2.67946 18.8804 2.27544 19.1497 1.9404 19.1297C1.64852 19.1123 1.37889 18.968 1.20249 18.7348C1 18.4671 1 17.9815 1 17.0104V2.98963Z" stroke="white" stroke-width="1.5" stroke-linecap="round" stroke-linejoin="round"/>
</svg>
