<svg width="16" height="17" viewBox="0 0 16 17" fill="none" xmlns="http://www.w3.org/2000/svg">
<path d="M7.0572 9.44279C6.5365 8.92209 6.5365 8.07787 7.0572 7.55717C7.5779 7.03647 8.42212 7.03647 8.94282 7.55717C9.46352 8.07787 9.46352 8.92209 8.94282 9.44279M5.17158 11.3284C3.60949 9.76631 3.60949 7.23365 5.17158 5.67155C6.73368 4.10946 9.26634 4.10946 10.8284 5.67155C12.3905 7.23365 12.3905 9.76631 10.8284 11.3284M3.28597 13.214C0.68247 10.6105 0.68247 6.38943 3.28597 3.78593C5.88946 1.18244 10.1106 1.18244 12.7141 3.78593C15.3176 6.38943 15.3176 10.6105 12.7141 13.214" stroke="#09113B" stroke-width="1.5" stroke-linecap="round" stroke-linejoin="round"/>
</svg>
