<svg width="15" height="14" viewBox="0 0 15 14" fill="none" xmlns="http://www.w3.org/2000/svg">
<path d="M7.02176 1.3022C7.17542 0.990908 7.25225 0.835262 7.35655 0.785532C7.44729 0.742266 7.55272 0.742266 7.64347 0.785532C7.74776 0.835262 7.82459 0.990908 7.97825 1.3022L9.43604 4.25551C9.4814 4.34741 9.50408 4.39336 9.53723 4.42904C9.56658 4.46063 9.60177 4.48622 9.64087 4.5044C9.68503 4.52494 9.73573 4.53235 9.83714 4.54717L13.098 5.02379C13.4414 5.07398 13.6131 5.09908 13.6925 5.18295C13.7616 5.25592 13.7942 5.35619 13.781 5.45584C13.7659 5.57038 13.6416 5.69144 13.393 5.93358L11.0343 8.23094C10.9608 8.30255 10.924 8.33836 10.9003 8.38096C10.8793 8.41869 10.8658 8.46013 10.8606 8.50299C10.8547 8.5514 10.8634 8.60199 10.8808 8.70315L11.4373 11.9481C11.496 12.2903 11.5254 12.4614 11.4702 12.563C11.4222 12.6513 11.3369 12.7133 11.238 12.7316C11.1244 12.7527 10.9707 12.6719 10.6634 12.5103L7.74825 10.9772C7.65742 10.9294 7.612 10.9056 7.56416 10.8962C7.52179 10.8879 7.47822 10.8879 7.43586 10.8962C7.38801 10.9056 7.3426 10.9294 7.25177 10.9772L4.33661 12.5103C4.02927 12.6719 3.8756 12.7527 3.76198 12.7316C3.66312 12.7133 3.57781 12.6513 3.52982 12.563C3.47466 12.4614 3.50401 12.2903 3.56271 11.9481L4.11925 8.70315C4.1366 8.60199 4.14528 8.5514 4.13941 8.50299C4.13421 8.46013 4.12074 8.41869 4.09973 8.38096C4.07601 8.33836 4.03925 8.30255 3.96572 8.23094L1.60703 5.93358C1.35844 5.69144 1.23414 5.57038 1.21901 5.45584C1.20585 5.35619 1.23836 5.25592 1.3075 5.18295C1.38695 5.09908 1.55864 5.07398 1.90202 5.02379L5.16287 4.54717C5.26428 4.53235 5.31498 4.52494 5.35914 4.5044C5.39824 4.48622 5.43344 4.46063 5.46279 4.42904C5.49593 4.39336 5.51861 4.34741 5.56398 4.25551L7.02176 1.3022Z" stroke="#18DDF7" stroke-linecap="round" stroke-linejoin="round"/>
</svg>
