<svg width="16" height="16" viewBox="0 0 16 16" fill="none" xmlns="http://www.w3.org/2000/svg">
<g clip-path="url(#clip0_1920_12896)">
<path d="M8.0001 16.0002C12.4184 16.0002 16.0002 12.4184 16.0002 8.0001C16.0002 3.58177 12.4184 0 8.0001 0C3.58177 0 0 3.58177 0 8.0001C0 12.4184 3.58177 16.0002 8.0001 16.0002Z" fill="#50AF95"/>
<path d="M8.00013 15.8829C12.3538 15.8829 15.8831 12.3536 15.8831 8C15.8831 3.64638 12.3538 0.117065 8.00013 0.117065C3.6465 0.117065 0.117188 3.64638 0.117188 8C0.117188 12.3536 3.6465 15.8829 8.00013 15.8829Z" fill="white"/>
<path d="M8.00119 15.8049C12.3117 15.8049 15.8061 12.3106 15.8061 8.00003C15.8061 3.6895 12.3117 0.195129 8.00119 0.195129C3.69066 0.195129 0.196289 3.6895 0.196289 8.00003C0.196289 12.3106 3.69066 15.8049 8.00119 15.8049Z" fill="#50AF95"/>
<path d="M7.9999 13.9842C11.3049 13.9842 13.9842 11.3049 13.9842 7.9999C13.9842 4.69488 11.3049 2.01562 7.9999 2.01562C4.69488 2.01562 2.01562 4.69488 2.01562 7.9999C2.01562 11.3049 4.69488 13.9842 7.9999 13.9842Z" fill="#50AF95"/>
<path d="M8.00024 13.7757C11.19 13.7757 13.7759 11.1899 13.7759 8.00006C13.7759 4.81026 11.19 2.22443 8.00024 2.22443C4.81045 2.22443 2.22461 4.81026 2.22461 8.00006C2.22461 11.1899 4.81045 13.7757 8.00024 13.7757Z" fill="url(#paint0_linear_1920_12896)"/>
<path d="M8.0004 13.6492C11.1202 13.6492 13.6492 11.1202 13.6492 8.0004C13.6492 4.88063 11.1202 2.35156 8.0004 2.35156C4.88063 2.35156 2.35156 4.88063 2.35156 8.0004C2.35156 11.1202 4.88063 13.6492 8.0004 13.6492Z" fill="url(#paint1_linear_1920_12896)"/>
<path d="M8.00099 4.44913L9.15635 6.79036L11.7399 6.95125V7.16571L9.87056 8.98814L10.3117 11.3466V11.5613L8.00099 10.3463L5.69005 11.5613V11.3466L6.13141 8.98814L4.26184 7.16571V6.95125L6.84542 6.79036L8.00099 4.44913Z" fill="url(#paint2_linear_1920_12896)"/>
<path d="M8.00099 4.23434L9.15635 6.57557L11.7399 6.95113L9.87056 8.77336L10.3117 11.3465L8.00099 10.1318L5.69005 11.3465L6.13141 8.77336L4.26184 6.95113L6.84542 6.57557L8.00099 4.23434Z" fill="url(#paint3_linear_1920_12896)"/>
<path opacity="0.17" d="M13.2245 2.20072C11.175 10.3461 4.20707 11.0402 0.73415 10.8532C0.386878 9.96951 0.196289 9.00713 0.196289 8.00023C0.196289 3.68932 3.69048 0.195129 8.00119 0.195129C10.0098 0.195129 11.8414 0.953872 13.2247 2.20072H13.2245Z" fill="url(#paint4_linear_1920_12896)"/>
<rect x="2" y="2" width="12" height="12" rx="6" fill="#50AF95"/>
<path fill-rule="evenodd" clip-rule="evenodd" d="M6.98066 8.93323C7.03748 8.93748 7.33106 8.95493 7.98593 8.95493C8.50679 8.95493 8.8766 8.93936 9.00634 8.93323C11.0192 8.84501 12.5217 8.49592 12.5217 8.07794C12.5217 7.65997 11.0192 7.31135 9.00634 7.22171V8.58555C8.87471 8.59498 8.49779 8.61716 7.97693 8.61716C7.3519 8.61716 7.0389 8.59121 6.98256 8.58602V7.22266C4.97392 7.31182 3.47478 7.66092 3.47478 8.07794C3.47478 8.49497 4.97345 8.84407 6.98256 8.93276L6.98066 8.93323ZM6.98066 7.0816V5.86118H4.17747V4.00012H11.8095V5.86118H9.00682V7.08113C11.2849 7.18539 12.998 7.63497 12.998 8.17371C12.998 8.71245 11.2849 9.16156 9.00682 9.26629V13.1771H6.98114V9.26487C4.70828 9.16061 2.99796 8.71151 2.99796 8.17324C2.99796 7.63497 4.70686 7.18586 6.98114 7.08113L6.98066 7.0816Z" fill="white"/>
</g>
<defs>
<linearGradient id="paint0_linear_1920_12896" x1="8.00024" y1="2.42384" x2="8.00024" y2="13.7998" gradientUnits="userSpaceOnUse">
<stop stop-color="#898E8F"/>
<stop offset="1" stop-color="#A5A9AA"/>
</linearGradient>
<linearGradient id="paint1_linear_1920_12896" x1="8.0004" y1="2.54656" x2="8.0004" y2="13.6727" gradientUnits="userSpaceOnUse">
<stop stop-color="#C6C9C9"/>
<stop offset="1" stop-color="#A5A9AA"/>
</linearGradient>
<linearGradient id="paint2_linear_1920_12896" x1="8.00099" y1="4.57191" x2="8.00099" y2="11.5761" gradientUnits="userSpaceOnUse">
<stop stop-color="#A5A9AA"/>
<stop offset="1" stop-color="#898E8F"/>
</linearGradient>
<linearGradient id="paint3_linear_1920_12896" x1="8.00099" y1="4.35732" x2="8.00099" y2="11.3613" gradientUnits="userSpaceOnUse">
<stop stop-color="#D2D4D4"/>
<stop offset="1" stop-color="#B2B5B6"/>
</linearGradient>
<linearGradient id="paint4_linear_1920_12896" x1="5.40758" y1="4.02214" x2="9.42739" y2="10.4279" gradientUnits="userSpaceOnUse">
<stop stop-color="white"/>
<stop offset="1" stop-color="white" stop-opacity="0"/>
</linearGradient>
<clipPath id="clip0_1920_12896">
<rect width="16" height="16" fill="white"/>
</clipPath>
</defs>
</svg>
