<svg width="17" height="17" viewBox="0 0 17 17" fill="none" xmlns="http://www.w3.org/2000/svg">
<path d="M13.1667 14.5V10.5M11.1667 12.5H15.1667M8.50001 10.5H5.83334C4.59083 10.5 3.96958 10.5 3.47952 10.703C2.82611 10.9736 2.30698 11.4928 2.03633 12.1462C1.83334 12.6362 1.83334 13.2575 1.83334 14.5M10.8333 2.69384C11.8106 3.08943 12.5 4.04754 12.5 5.16667C12.5 6.28579 11.8106 7.2439 10.8333 7.63949M9.50001 5.16667C9.50001 6.63943 8.3061 7.83333 6.83334 7.83333C5.36058 7.83333 4.16668 6.63943 4.16668 5.16667C4.16668 3.69391 5.36058 2.5 6.83334 2.5C8.3061 2.5 9.50001 3.69391 9.50001 5.16667Z" stroke="#18DDF7" stroke-linecap="round" stroke-linejoin="round"/>
</svg>
