<svg width="23" height="18" viewBox="0 0 23 18" fill="none" xmlns="http://www.w3.org/2000/svg">
<path d="M17.1377 7.89673C18.5327 7.70073 19.6067 6.50473 19.6097 5.05573C19.6097 3.62773 18.5687 2.44373 17.2037 2.21973" stroke="white" stroke-opacity="0.5" stroke-width="1.5" stroke-linecap="round" stroke-linejoin="round"/>
<path d="M18.9785 11.2502C20.3295 11.4522 21.2725 11.9252 21.2725 12.9002C21.2725 13.5712 20.8285 14.0072 20.1105 14.2812" stroke="white" stroke-opacity="0.5" stroke-width="1.5" stroke-linecap="round" stroke-linejoin="round"/>
<path fill-rule="evenodd" clip-rule="evenodd" d="M11.1367 11.6638C7.9227 11.6638 5.1777 12.1508 5.1777 14.0958C5.1777 16.0398 7.9057 16.5408 11.1367 16.5408C14.3507 16.5408 17.0947 16.0588 17.0947 14.1128C17.0947 12.1668 14.3677 11.6638 11.1367 11.6638Z" stroke="white" stroke-opacity="0.5" stroke-width="1.5" stroke-linecap="round" stroke-linejoin="round"/>
<path fill-rule="evenodd" clip-rule="evenodd" d="M11.1367 8.88788C13.2457 8.88788 14.9557 7.17888 14.9557 5.06888C14.9557 2.95988 13.2457 1.24988 11.1367 1.24988C9.02772 1.24988 7.31772 2.95988 7.31772 5.06888C7.30972 7.17088 9.00672 8.88088 11.1087 8.88788H11.1367Z" stroke="white" stroke-opacity="0.5" stroke-width="1.5" stroke-linecap="round" stroke-linejoin="round"/>
<path d="M5.13481 7.89673C3.73881 7.70073 2.66581 6.50473 2.66281 5.05573C2.66281 3.62773 3.70381 2.44373 5.06881 2.21973" stroke="white" stroke-opacity="0.5" stroke-width="1.5" stroke-linecap="round" stroke-linejoin="round"/>
<path d="M3.29391 11.2502C1.94291 11.4522 0.999908 11.9252 0.999908 12.9002C0.999908 13.5712 1.44391 14.0072 2.16191 14.2812" stroke="white" stroke-opacity="0.5" stroke-width="1.5" stroke-linecap="round" stroke-linejoin="round"/>
</svg>
