<svg width="16" height="16" viewBox="0 0 16 16" fill="none" xmlns="http://www.w3.org/2000/svg">
<g clip-path="url(#clip0_1791_8581)">
<path d="M3.54418 12.9589C3.94973 12.0035 4.89659 11.3333 5.99998 11.3333H9.99998C11.1034 11.3333 12.0502 12.0035 12.4558 12.9589M10.6666 6.33334C10.6666 7.8061 9.47274 9.00001 7.99998 9.00001C6.52722 9.00001 5.33331 7.8061 5.33331 6.33334C5.33331 4.86058 6.52722 3.66668 7.99998 3.66668C9.47274 3.66668 10.6666 4.86058 10.6666 6.33334ZM14.6666 8.00001C14.6666 11.6819 11.6819 14.6667 7.99998 14.6667C4.31808 14.6667 1.33331 11.6819 1.33331 8.00001C1.33331 4.31811 4.31808 1.33334 7.99998 1.33334C11.6819 1.33334 14.6666 4.31811 14.6666 8.00001Z" stroke="#18DDF7" stroke-linecap="round" stroke-linejoin="round"/>
</g>
<defs>
<clipPath id="clip0_1791_8581">
<rect width="16" height="16" fill="white"/>
</clipPath>
</defs>
</svg>
