<svg width="16" height="16" viewBox="0 0 16 16" fill="none" xmlns="http://www.w3.org/2000/svg">
<path d="M1.33331 4.00001C1.73331 4.33334 2.13331 4.66668 2.99998 4.66668C4.66665 4.66668 4.66665 3.33334 6.33331 3.33334C7.19998 3.33334 7.59998 3.66668 7.99998 4.00001C8.39998 4.33334 8.79998 4.66668 9.66665 4.66668C11.3333 4.66668 11.3333 3.33334 13 3.33334C13.8666 3.33334 14.2666 3.66668 14.6666 4.00001M1.33331 12C1.73331 12.3333 2.13331 12.6667 2.99998 12.6667C4.66665 12.6667 4.66665 11.3333 6.33331 11.3333C7.19998 11.3333 7.59998 11.6667 7.99998 12C8.39998 12.3333 8.79998 12.6667 9.66665 12.6667C11.3333 12.6667 11.3333 11.3333 13 11.3333C13.8666 11.3333 14.2666 11.6667 14.6666 12M1.33331 8.00001C1.73331 8.33334 2.13331 8.66668 2.99998 8.66668C4.66665 8.66668 4.66665 7.33334 6.33331 7.33334C7.19998 7.33334 7.59998 7.66668 7.99998 8.00001C8.39998 8.33334 8.79998 8.66668 9.66665 8.66668C11.3333 8.66668 11.3333 7.33334 13 7.33334C13.8666 7.33334 14.2666 7.66668 14.6666 8.00001" stroke="#18DDF7" stroke-linecap="round" stroke-linejoin="round"/>
</svg>
