<svg width="800" height="800" viewBox="0 0 800 800" fill="none" xmlns="http://www.w3.org/2000/svg">
<path d="M62.4952 418.713C62.4066 418.713 62.318 418.701 62.2312 418.676C60.5194 418.167 58.9632 417.213 57.7326 415.918L28.625 385.219C26.1311 382.585 25.2196 378.788 26.2476 375.31L38.2822 334.742C38.7932 333.028 39.7471 331.474 41.0421 330.248C41.4137 329.897 41.9995 329.913 42.3505 330.284L74.4511 364.139C76.7649 366.579 77.6086 370.098 76.6528 373.324L63.383 418.052C63.3125 418.287 63.1526 418.484 62.9366 418.602C62.8 418.676 62.648 418.713 62.4952 418.713ZM41.6795 332.266C40.9408 333.141 40.3865 334.165 40.0574 335.27L28.0237 375.836C27.1827 378.683 27.9277 381.79 29.9695 383.945L59.0761 414.642C59.8701 415.478 60.8286 416.14 61.8857 416.587L74.877 372.796C75.6456 370.204 74.9674 367.374 73.1074 365.412L41.6795 332.266Z" fill="#00FFFF"/>
<path d="M62.4078 333.745C63.8687 335.244 63.4086 336.877 61.3798 337.393C59.3512 337.909 56.5221 337.112 55.061 335.613C53.5998 334.114 54.0599 332.481 56.0887 331.965C58.1174 331.449 60.9465 332.246 62.4078 333.745Z" fill="#00FFFF"/>
<path d="M77.5679 329.888C79.0289 331.387 78.5687 333.021 76.5399 333.537C74.5113 334.053 71.6822 333.256 70.2211 331.756C68.7599 330.258 69.2201 328.624 71.2489 328.108C73.2775 327.592 76.1066 328.389 77.5679 329.888Z" fill="#00FFFF"/>
<path d="M92.7281 326.033C94.1891 327.532 93.7289 329.165 91.7001 329.681C89.6715 330.197 86.8424 329.4 85.3813 327.901C83.9201 326.402 84.3802 324.769 86.409 324.253C88.4377 323.737 91.2668 324.534 92.7281 326.033Z" fill="#00FFFF"/>
<path d="M82.8841 354.761C84.3453 356.26 83.8852 357.894 81.8563 358.41C79.8277 358.925 76.9986 358.129 75.5376 356.63C74.0763 355.13 74.5364 353.497 76.5653 352.981C78.5939 352.465 81.4231 353.262 82.8841 354.761Z" fill="#00FFFF"/>
<path d="M98.0481 350.902C99.5094 352.401 99.0492 354.034 97.0204 354.55C94.9918 355.066 92.1627 354.269 90.7016 352.77C89.2404 351.271 89.7005 349.638 91.7293 349.122C93.7579 348.606 96.587 349.403 98.0481 350.902Z" fill="#00FFFF"/>
<path d="M113.224 347.042C114.685 348.541 114.225 350.174 112.196 350.69C110.168 351.206 107.338 350.409 105.877 348.91C104.416 347.411 104.876 345.777 106.905 345.262C108.934 344.746 111.763 345.543 113.224 347.042Z" fill="#00FFFF"/>
<path d="M48.2328 354.102C47.5549 356.507 45.591 357.007 43.8465 355.217C42.1016 353.427 41.2366 350.026 41.9146 347.62C42.5923 345.214 44.5561 344.714 46.301 346.504C48.0458 348.294 48.9106 351.696 48.2328 354.102Z" fill="#00FFFF"/>
<path d="M54.2522 377.777C53.5745 380.183 51.6107 380.683 49.8659 378.893C48.1213 377.103 47.2563 373.701 47.934 371.295C48.612 368.89 50.5758 368.39 52.3204 370.18C54.0652 371.97 54.9302 375.371 54.2522 377.777Z" fill="#00FFFF"/>
<path d="M60.2718 401.453C59.5941 403.859 57.6303 404.358 55.8854 402.569C54.1406 400.779 53.2758 397.377 53.9536 394.971C54.6313 392.565 56.5951 392.066 58.3399 393.856C60.0848 395.646 60.9495 399.047 60.2718 401.453Z" fill="#00FFFF"/>
<path d="M129.024 346.778C129.684 346.778 130.349 346.829 131.013 346.933L188.75 355.992C193.276 356.702 197.079 359.773 198.726 364.047L219.75 418.577C221.398 422.852 220.64 427.68 217.763 431.244L181.049 476.716C178.593 479.758 174.913 481.484 171.074 481.484C170.414 481.484 169.749 481.433 169.085 481.329L111.349 472.27C106.823 471.56 103.02 468.49 101.372 464.215L80.3496 409.685C78.702 405.411 79.4595 400.582 82.3368 397.018L119.049 351.546C121.505 348.504 125.185 346.778 129.024 346.778ZM129.024 344.926C124.569 344.926 120.408 346.914 117.608 350.382L80.8959 395.855C77.6134 399.921 76.7421 405.475 78.6219 410.351L99.6442 464.882C101.524 469.758 105.899 473.29 111.062 474.1L168.798 483.158C169.55 483.276 170.315 483.336 171.074 483.336C175.529 483.336 179.69 481.347 182.49 477.879L219.204 432.408C222.487 428.342 223.358 422.787 221.478 417.911L200.454 363.38C198.575 358.505 194.2 354.973 189.037 354.163L131.3 345.103C130.549 344.985 129.783 344.926 129.024 344.926Z" fill="#00FFFF"/>
<path d="M218.042 419.239L197.018 364.708C196.55 363.495 195.87 362.376 195.016 361.405L155.4 410.471C153.415 412.93 152.888 416.289 154.024 419.237L176.71 478.078C177.82 477.416 178.811 476.56 179.627 475.548L216.342 430.076C218.796 427.037 219.447 422.884 218.042 419.239ZM188.743 426.265C186.34 429.241 183.276 428.76 181.9 425.191C180.524 421.622 181.357 416.317 183.76 413.341C186.163 410.364 189.226 410.845 190.602 414.414C191.978 417.983 191.146 423.289 188.743 426.265Z" fill="#00FFFF"/>
<path d="M117.948 383.977C121.282 384.5 122.266 387.052 120.146 389.678C118.027 392.303 113.606 394.008 110.273 393.484C106.939 392.961 105.955 390.409 108.075 387.784C110.195 385.158 114.615 383.454 117.948 383.977Z" fill="#00FFFF"/>
<path d="M135.656 362.059C138.989 362.582 139.973 365.134 137.853 367.76C135.734 370.385 131.313 372.09 127.98 371.566C124.646 371.044 123.662 368.491 125.782 365.866C127.902 363.24 132.322 361.536 135.656 362.059Z" fill="#00FFFF"/>
<path d="M145.792 388.346C149.126 388.869 150.11 391.422 147.99 394.047C145.871 396.673 141.45 398.377 138.116 397.854C134.783 397.331 133.799 394.778 135.919 392.153C138.038 389.528 142.459 387.823 145.792 388.346Z" fill="#00FFFF"/>
<path d="M163.476 366.424C166.809 366.947 167.793 369.5 165.674 372.125C163.554 374.75 159.133 376.455 155.8 375.932C152.466 375.409 151.483 372.856 153.602 370.231C155.722 367.606 160.142 365.901 163.476 366.424Z" fill="#00FFFF"/>
<path d="M150.786 421.134C149.515 417.838 146.558 415.45 143.067 414.902L81.3633 405.222C81.3818 406.511 81.6273 407.793 82.0926 409.004L103.124 463.559C104.53 467.194 107.797 469.829 111.648 470.436L169.397 479.496C169.957 479.583 170.528 479.628 171.093 479.628C171.823 479.628 172.545 479.556 173.254 479.413L150.786 421.134ZM105.973 428.974C103.104 428.524 99.9313 425.963 98.8869 423.254C97.8424 420.544 99.3212 418.713 102.19 419.163C105.059 419.613 108.231 422.174 109.276 424.884C110.32 427.593 108.841 429.424 105.973 428.974ZM118.24 460.797C115.372 460.346 112.199 457.785 111.155 455.076C110.11 452.366 111.589 450.535 114.458 450.985C117.327 451.435 120.499 453.996 121.543 456.706C122.588 459.415 121.109 461.247 118.24 460.797ZM128.953 447.529C126.084 447.078 122.912 444.517 121.867 441.808C120.823 439.098 122.302 437.267 125.17 437.717C128.039 438.167 131.212 440.728 132.256 443.437C133.301 446.147 131.822 447.979 128.953 447.529ZM139.665 434.26C136.797 433.81 133.624 431.249 132.58 428.54C131.535 425.83 133.014 423.998 135.883 424.449C138.751 424.899 141.924 427.46 142.968 430.169C144.013 432.879 142.534 434.711 139.665 434.26ZM151.933 466.082C149.065 465.632 145.892 463.071 144.848 460.362C143.803 457.652 145.282 455.821 148.151 456.271C151.019 456.721 154.192 459.282 155.236 461.992C156.281 464.701 154.802 466.533 151.933 466.082Z" fill="#00FFFF"/>
<path d="M78.6251 410.348C76.7455 405.472 77.6166 399.917 80.8993 395.852L109.331 360.636L82.5094 367.063C79.2079 367.855 75.7363 366.827 73.3956 364.369L73.7803 364.775C75.8747 366.983 76.6316 370.142 75.766 373.06L62.4968 417.786C60.9622 417.331 59.5456 416.479 58.4054 415.278L29.2982 384.581C27.0224 382.178 26.1987 378.745 27.1367 375.571L39.171 335.006C39.6431 333.421 40.5188 332.021 41.6793 330.92H41.6795C42.8418 329.818 44.2891 329.017 45.9009 328.631L63.3176 324.456L87.0333 318.773C90.2559 318.002 93.645 319.008 95.9251 321.412L120.697 347.538C120.955 347.359 121.212 347.179 121.481 347.018L96.598 320.775C94.6791 318.752 91.9809 317.592 89.1921 317.592C88.3928 317.592 87.5918 317.687 86.814 317.873L45.6854 327.73C42.1499 328.577 39.3124 331.267 38.2796 334.752L26.2515 375.297C25.217 378.781 26.1284 382.584 28.6278 385.222L57.73 415.913C59.6489 417.936 62.3471 419.096 65.1358 419.096C65.9351 419.096 66.7344 419.001 67.5122 418.814L80.6734 415.661L78.6251 410.348Z" fill="#00FFFF"/>
<path d="M80.341 414.792L67.301 417.917C66.5837 418.089 65.8584 418.173 65.1386 418.173C62.6235 418.173 60.1789 417.149 58.4054 415.278L29.3049 384.588C27.0239 382.183 26.1995 378.743 27.1423 375.565L39.1715 335.018C40.1142 331.84 42.6806 329.407 45.9044 328.634L87.0326 318.777C87.7501 318.605 88.4753 318.521 89.1952 318.521C91.7104 318.521 94.1554 319.545 95.9286 321.416L120.7 347.541C121.222 347.18 121.761 346.851 122.323 346.561L97.2724 320.142C95.1802 317.935 92.236 316.669 89.1952 316.669C88.3233 316.669 87.4503 316.772 86.6011 316.976L45.4728 326.833C41.6182 327.757 38.5235 330.691 37.396 334.491L25.367 375.038C24.2397 378.838 25.2338 382.986 27.9611 385.862L57.0616 416.553C59.1539 418.759 62.0981 420.025 65.1386 420.025C66.0106 420.025 66.8832 419.922 67.7325 419.718L81.0131 416.536L80.341 414.792Z" fill="#00FFFF"/>
<path d="M82.7294 367.963L108.382 361.816L110.288 359.455L82.2972 366.162C79.3196 366.882 76.1637 365.94 74.0568 363.719L43.0286 330.992C43.9446 330.3 44.999 329.801 46.1212 329.531L87.2523 319.673C90.1424 318.979 93.2104 319.892 95.2577 322.049L119.938 348.078C120.43 347.688 120.949 347.34 121.484 347.018L96.6015 320.776C94.1031 318.139 90.3576 317.029 86.8211 317.872L45.6889 327.73C43.9491 328.148 42.3443 329.019 41.0475 330.247C40.8682 330.417 40.7652 330.651 40.7581 330.895C40.7517 331.141 40.8431 331.379 41.0121 331.557L72.7132 364.992C74.7062 367.093 77.4721 368.249 80.3062 368.249C81.1136 368.249 81.9273 368.155 82.7294 367.963Z" fill="#00FFFF"/>
<path d="M270.735 414.805V398.335H291.255C293.865 398.335 296.25 397.795 298.41 396.715C300.57 395.635 302.28 394.06 303.54 391.99C304.8 389.92 305.43 387.4 305.43 384.43C305.43 381.55 304.8 379.075 303.54 377.005C302.28 374.935 300.57 373.36 298.41 372.28C296.25 371.2 293.865 370.66 291.255 370.66H270.735V354.19H294.36C300.39 354.19 305.835 355.405 310.695 357.835C315.555 360.265 319.38 363.775 322.17 368.365C325.05 372.865 326.49 378.22 326.49 384.43C326.49 390.64 325.05 396.04 322.17 400.63C319.38 405.13 315.555 408.64 310.695 411.16C305.835 413.59 300.39 414.805 294.36 414.805H270.735ZM254.535 449.5V354.19H275.73V449.5H254.535ZM354.583 410.215V394.555H374.698C378.928 394.555 382.168 393.475 384.418 391.315C386.758 389.155 387.928 386.23 387.928 382.54C387.928 379.12 386.803 376.285 384.553 374.035C382.303 371.785 379.063 370.66 374.833 370.66H354.583V354.19H377.263C383.563 354.19 389.098 355.405 393.868 357.835C398.638 360.175 402.373 363.46 405.073 367.69C407.773 371.92 409.123 376.78 409.123 382.27C409.123 387.85 407.773 392.755 405.073 396.985C402.373 401.125 398.593 404.365 393.733 406.705C388.873 409.045 383.158 410.215 376.588 410.215H354.583ZM338.383 449.5V354.19H359.578V449.5H338.383ZM390.223 449.5L360.523 408.46L379.963 403.195L415.333 449.5H390.223ZM424.604 449.5V354.19H445.799V449.5H424.604ZM440.804 449.5V431.14H493.049V449.5H440.804ZM440.804 409.675V391.99H488.324V409.675H440.804ZM440.804 372.415V354.19H492.374V372.415H440.804Z" fill="#00FFFF"/>
<path d="M521.97 449.5V430.87H545.595C551.355 430.87 556.395 429.745 560.715 427.495C565.035 425.155 568.365 421.78 570.705 417.37C573.045 412.96 574.215 407.74 574.215 401.71C574.215 395.68 573 390.505 570.57 386.185C568.23 381.865 564.9 378.535 560.58 376.195C556.35 373.855 551.355 372.685 545.595 372.685H521.295V354.19H545.865C553.065 354.19 559.68 355.36 565.71 357.7C571.83 359.95 577.14 363.235 581.64 367.555C586.23 371.785 589.74 376.825 592.17 382.675C594.69 388.435 595.95 394.825 595.95 401.845C595.95 408.775 594.69 415.165 592.17 421.015C589.74 426.865 586.275 431.905 581.775 436.135C577.275 440.365 571.965 443.65 565.845 445.99C559.815 448.33 553.245 449.5 546.135 449.5H521.97ZM507.66 449.5V354.19H528.855V449.5H507.66ZM609.438 449.5V354.19H630.633V449.5H609.438ZM625.638 449.5V431.14H677.883V449.5H625.638ZM625.638 409.675V391.99H673.158V409.675H625.638ZM625.638 372.415V354.19H677.208V372.415H625.638ZM692.494 449.5V354.19H707.344L713.689 373.225V449.5H692.494ZM758.239 449.5L702.079 377.545L707.344 354.19L763.504 426.145L758.239 449.5ZM758.239 449.5L752.569 430.465V354.19H773.764V449.5H758.239Z" fill="#27FE60"/>
</svg>
